<svg width="21" height="21" viewBox="0 0 21 21" fill="none" xmlns="http://www.w3.org/2000/svg">
<path d="M1.33325 10.2643C1.33325 6.71869 1.33325 4.9459 2.40719 3.84441C3.48114 2.74294 5.20962 2.74294 8.66658 2.74294H12.3333C15.7902 2.74294 17.5187 2.74294 18.5926 3.84441C19.6666 4.9459 19.6666 6.71869 19.6666 10.2643V12.1446C19.6666 15.6902 19.6666 17.4631 18.5926 18.5645C17.5187 19.666 15.7902 19.666 12.3333 19.666H8.66658C5.20962 19.666 3.48114 19.666 2.40719 18.5645C1.33325 17.4631 1.33325 15.6902 1.33325 12.1446V10.2643Z" stroke="white" stroke-width="1.2"/>
<path d="M5.91675 2.74352V1.33326" stroke="white" stroke-width="1.5" stroke-linecap="round"/>
<path d="M15.0833 2.74352V1.33326" stroke="white" stroke-width="1.5" stroke-linecap="round"/>
<path d="M1.79126 7.44405H19.2079" stroke="white" stroke-width="1.5" stroke-linecap="round"/>
<path d="M15.0825 14.4416C15.3487 14.4418 15.5825 14.666 15.5825 14.965C15.5824 15.2639 15.3486 15.4883 15.0825 15.4885C14.8163 15.4885 14.5827 15.264 14.5825 14.965C14.5825 14.6659 14.8162 14.4416 15.0825 14.4416Z" fill="white" stroke="white" stroke-width="0.833301"/>
<path d="M15.0825 10.6809C15.3487 10.6811 15.5825 10.9053 15.5825 11.2043C15.5824 11.5032 15.3486 11.7276 15.0825 11.7277C14.8163 11.7277 14.5827 11.5033 14.5825 11.2043C14.5825 10.9052 14.8162 10.6809 15.0825 10.6809Z" fill="white" stroke="white" stroke-width="0.833301"/>
<path d="M10.501 14.4421C10.7671 14.4422 11.001 14.6665 11.001 14.9655C11.0008 15.2644 10.767 15.4887 10.501 15.4889C10.2348 15.4889 10.0011 15.2645 10.001 14.9655C10.001 14.6663 10.2347 14.4421 10.501 14.4421Z" fill="white" stroke="white" stroke-width="0.833301"/>
<path d="M10.501 10.6813C10.7671 10.6815 11.001 10.9057 11.001 11.2048C11.0008 11.5037 10.767 11.728 10.501 11.7282C10.2348 11.7282 10.0011 11.5038 10.001 11.2048C10.001 10.9056 10.2347 10.6813 10.501 10.6813Z" fill="white" stroke="white" stroke-width="0.833301"/>
<path d="M5.91577 14.4416C6.18191 14.4418 6.41577 14.666 6.41577 14.965C6.41564 15.2639 6.18183 15.4883 5.91577 15.4885C5.64958 15.4885 5.41591 15.264 5.41577 14.965C5.41577 14.6659 5.6495 14.4416 5.91577 14.4416Z" fill="white" stroke="white" stroke-width="0.833301"/>
<path d="M5.91577 10.6809C6.18191 10.6811 6.41577 10.9053 6.41577 11.2043C6.41564 11.5032 6.18183 11.7276 5.91577 11.7277C5.64958 11.7277 5.41591 11.5033 5.41577 11.2043C5.41577 10.9052 5.6495 10.6809 5.91577 10.6809Z" fill="white" stroke="white" stroke-width="0.833301"/>
</svg>
