<svg width="20" height="20" viewBox="0 0 20 20" fill="none" xmlns="http://www.w3.org/2000/svg">
<path d="M5 6.66671H8.33333M18.3333 8.75004C18.3333 8.68587 18.3333 8.30587 18.3317 8.27921C18.3017 7.86171 17.9442 7.52921 17.4942 7.50171C17.4658 7.50004 17.4317 7.50004 17.3617 7.50004H15.1933C13.705 7.50004 12.5 8.61921 12.5 10C12.5 11.3809 13.7058 12.5 15.1917 12.5H17.3608C17.4308 12.5 17.465 12.5 17.4942 12.4984C17.9442 12.4709 18.3025 12.1384 18.3317 11.7209C18.3333 11.6942 18.3333 11.3142 18.3333 11.25M10.8333 3.33337C13.9758 3.33337 15.5475 3.33337 16.5233 4.31004C17.1975 4.98337 17.4067 5.94004 17.4708 7.50004M8.33333 16.6667H10.8333C13.9758 16.6667 15.5475 16.6667 16.5233 15.69C17.1975 15.0167 17.4067 14.06 17.4708 12.5M7.5 3.33337C4.905 3.34171 3.52917 3.42337 2.64333 4.31004C1.66667 5.28587 1.66667 6.85754 1.66667 10C1.66667 13.1425 1.66667 14.7142 2.64333 15.69C3.1875 16.235 3.91667 16.4759 5 16.5817M15.8333 10C15.8333 10.4603 15.4602 10.8334 15 10.8334C14.5398 10.8334 14.1667 10.4603 14.1667 10C14.1667 9.5398 14.5398 9.16671 15 9.16671C15.4602 9.16671 15.8333 9.5398 15.8333 10Z" stroke="#818CF8" stroke-width="1.5" stroke-linecap="round"/>
</svg>
