<svg width="24" height="24" viewBox="0 0 24 24" fill="none" xmlns="http://www.w3.org/2000/svg">
<g clip-path="url(#clip0_7_6995)">
<mask id="path-2-inside-1_7_6995" fill="white">
<path d="M21.9642 15.7142L19.4283 18.25L21.9642 20.7858L20.7858 21.9642L18.25 19.4283L15.7142 21.9642L14.5358 20.7858L17.0717 18.25L14.5358 15.7142L15.7142 14.5358L18.25 17.0717L20.7858 14.5358L21.9642 15.7142ZM3.66667 12C3.6657 10.8699 3.89458 9.75145 4.33942 8.71259C4.78425 7.67374 5.43573 6.73622 6.25424 5.95703C7.07275 5.17785 8.0412 4.57329 9.10068 4.18011C10.1602 3.78693 11.2885 3.61336 12.4172 3.66993C13.5459 3.72651 14.6512 4.01206 15.6661 4.50922C16.6809 5.00638 17.5841 5.70476 18.3206 6.56189C19.0571 7.41902 19.6115 8.417 19.9502 9.49513C20.2889 10.5733 20.4048 11.709 20.2908 12.8333H21.9575C21.9808 12.5575 22 12.2817 22 12C22 10.0222 21.4135 8.08879 20.3147 6.4443C19.2159 4.79981 17.6541 3.51809 15.8268 2.76121C13.9996 2.00433 11.9889 1.8063 10.0491 2.19215C8.10929 2.578 6.32746 3.53041 4.92894 4.92894C3.53041 6.32746 2.578 8.10929 2.19215 10.0491C1.8063 11.9889 2.00433 13.9996 2.76121 15.8268C3.51809 17.6541 4.79981 19.2159 6.4443 20.3147C8.08879 21.4135 10.0222 22 12 22C12.2817 22 12.5575 21.9808 12.8333 21.9575V20.2908C11.6744 20.4084 10.5037 20.2814 9.39691 19.9182C8.29011 19.5549 7.27184 18.9635 6.40791 18.1821C5.54398 17.4007 4.85361 16.4468 4.38142 15.3819C3.90924 14.317 3.66574 13.1649 3.66667 12ZM11.1667 7V10.8217L8.91084 13.0775L10.0892 14.2558L12.8333 11.5117V7H11.1667Z"/>
</mask>
<path d="M21.9642 15.7142L19.4283 18.25L21.9642 20.7858L20.7858 21.9642L18.25 19.4283L15.7142 21.9642L14.5358 20.7858L17.0717 18.25L14.5358 15.7142L15.7142 14.5358L18.25 17.0717L20.7858 14.5358L21.9642 15.7142ZM3.66667 12C3.6657 10.8699 3.89458 9.75145 4.33942 8.71259C4.78425 7.67374 5.43573 6.73622 6.25424 5.95703C7.07275 5.17785 8.0412 4.57329 9.10068 4.18011C10.1602 3.78693 11.2885 3.61336 12.4172 3.66993C13.5459 3.72651 14.6512 4.01206 15.6661 4.50922C16.6809 5.00638 17.5841 5.70476 18.3206 6.56189C19.0571 7.41902 19.6115 8.417 19.9502 9.49513C20.2889 10.5733 20.4048 11.709 20.2908 12.8333H21.9575C21.9808 12.5575 22 12.2817 22 12C22 10.0222 21.4135 8.08879 20.3147 6.4443C19.2159 4.79981 17.6541 3.51809 15.8268 2.76121C13.9996 2.00433 11.9889 1.8063 10.0491 2.19215C8.10929 2.578 6.32746 3.53041 4.92894 4.92894C3.53041 6.32746 2.578 8.10929 2.19215 10.0491C1.8063 11.9889 2.00433 13.9996 2.76121 15.8268C3.51809 17.6541 4.79981 19.2159 6.4443 20.3147C8.08879 21.4135 10.0222 22 12 22C12.2817 22 12.5575 21.9808 12.8333 21.9575V20.2908C11.6744 20.4084 10.5037 20.2814 9.39691 19.9182C8.29011 19.5549 7.27184 18.9635 6.40791 18.1821C5.54398 17.4007 4.85361 16.4468 4.38142 15.3819C3.90924 14.317 3.66574 13.1649 3.66667 12ZM11.1667 7V10.8217L8.91084 13.0775L10.0892 14.2558L12.8333 11.5117V7H11.1667Z" fill="#F87171"/>
<path d="M21.9642 15.7142L37.0491 30.7991L52.1341 15.7142L37.0491 0.629222L21.9642 15.7142ZM19.4283 18.25L4.3434 3.16505L-10.7416 18.25L4.3434 33.335L19.4283 18.25ZM21.9642 20.7858L37.0491 35.8708L52.1341 20.7858L37.0491 5.70089L21.9642 20.7858ZM20.7858 21.9642L5.70089 37.0491L20.7858 52.1341L35.8708 37.0491L20.7858 21.9642ZM18.25 19.4283L33.335 4.3434L18.25 -10.7416L3.16505 4.3434L18.25 19.4283ZM15.7142 21.9642L0.629222 37.0491L15.7142 52.1341L30.7991 37.0491L15.7142 21.9642ZM14.5358 20.7858L-0.549105 5.70089L-15.6341 20.7858L-0.549112 35.8708L14.5358 20.7858ZM17.0717 18.25L32.1566 33.335L47.2416 18.25L32.1566 3.16506L17.0717 18.25ZM14.5358 15.7142L-0.549107 0.629227L-15.6341 15.7142L-0.549105 30.7991L14.5358 15.7142ZM15.7142 14.5358L30.7991 -0.549105L15.7142 -15.6341L0.629227 -0.549107L15.7142 14.5358ZM18.25 17.0717L3.16506 32.1566L18.25 47.2416L33.335 32.1566L18.25 17.0717ZM20.7858 14.5358L35.8708 -0.549112L20.7858 -15.6341L5.70089 -0.549105L20.7858 14.5358ZM20.2908 12.8333L-0.933705 10.6816L-3.31461 34.1667H20.2908V12.8333ZM21.9575 12.8333V34.1667H41.5624L43.2149 14.6315L21.9575 12.8333ZM22 12H0.66667H22ZM12.8333 21.9575L14.6315 43.2149L34.1667 41.5624V21.9575H12.8333ZM12.8333 20.2908H34.1667V-3.31505L10.6812 -0.933665L12.8333 20.2908ZM11.1667 7V-14.3333H-10.1667V7H11.1667ZM11.1667 10.8217L26.2516 25.9066L32.5 19.6582V10.8217H11.1667ZM8.91084 13.0775L-6.17411 -2.00744L-21.2591 13.0775L-6.17411 28.1624L8.91084 13.0775ZM10.0892 14.2558L-4.99577 29.3408L10.0892 44.4257L25.1741 29.3408L10.0892 14.2558ZM12.8333 11.5117L27.9183 26.5966L34.1667 20.3482V11.5117H12.8333ZM12.8333 7H34.1667V-14.3333H12.8333V7ZM21.9642 15.7142L6.87923 0.629222L4.3434 3.16505L19.4283 18.25L34.5133 33.335L37.0491 30.7991L21.9642 15.7142ZM19.4283 18.25L4.3434 33.335L6.87923 35.8708L21.9642 20.7858L37.0491 5.70089L34.5133 3.16505L19.4283 18.25ZM21.9642 20.7858L6.87923 5.70089L5.70089 6.87923L20.7858 21.9642L35.8708 37.0491L37.0491 35.8708L21.9642 20.7858ZM20.7858 21.9642L35.8708 6.87923L33.335 4.3434L18.25 19.4283L3.16505 34.5133L5.70089 37.0491L20.7858 21.9642ZM18.25 19.4283L3.16505 4.3434L0.629222 6.87923L15.7142 21.9642L30.7991 37.0491L33.335 34.5133L18.25 19.4283ZM15.7142 21.9642L30.7991 6.87923L29.6208 5.7009L14.5358 20.7858L-0.549112 35.8708L0.629222 37.0491L15.7142 21.9642ZM14.5358 20.7858L29.6208 35.8708L32.1566 33.335L17.0717 18.25L1.98673 3.16506L-0.549105 5.70089L14.5358 20.7858ZM17.0717 18.25L32.1566 3.16506L29.6208 0.629224L14.5358 15.7142L-0.549105 30.7991L1.98673 33.335L17.0717 18.25ZM14.5358 15.7142L29.6208 30.7991L30.7991 29.6208L15.7142 14.5358L0.629227 -0.549107L-0.549107 0.629227L14.5358 15.7142ZM15.7142 14.5358L0.629224 29.6208L3.16506 32.1566L18.25 17.0717L33.335 1.98673L30.7991 -0.549105L15.7142 14.5358ZM18.25 17.0717L33.335 32.1566L35.8708 29.6208L20.7858 14.5358L5.70089 -0.549105L3.16506 1.98673L18.25 17.0717ZM20.7858 14.5358L5.7009 29.6208L6.87923 30.7991L21.9642 15.7142L37.0491 0.629222L35.8708 -0.549112L20.7858 14.5358ZM3.66667 12L25 11.9816C25.0015 13.7445 24.6445 15.4894 23.9505 17.11L4.33942 8.71259L-15.2717 0.31522C-16.8553 4.01354 -17.6701 7.99531 -17.6667 12.0184L3.66667 12ZM4.33942 8.71259L23.9505 17.11C23.2566 18.7306 22.2403 20.1931 20.9634 21.4086L6.25424 5.95703L-8.45491 -9.49457C-11.3688 -6.72068 -13.6881 -3.38309 -15.2717 0.31522L4.33942 8.71259ZM6.25424 5.95703L20.9634 21.4086C19.6865 22.6242 18.1757 23.5673 16.5229 24.1806L9.10068 4.18011L1.67841 -15.8204C-2.09334 -14.4207 -5.541 -12.2685 -8.45491 -9.49457L6.25424 5.95703ZM9.10068 4.18011L16.5229 24.1806C14.8702 24.794 13.1099 25.0648 11.3492 24.9765L12.4172 3.66993L13.4853 -17.6366C9.46721 -17.8381 5.45017 -17.2201 1.67841 -15.8204L9.10068 4.18011ZM12.4172 3.66993L11.3492 24.9765C9.58844 24.8883 7.86407 24.4428 6.2809 23.6672L15.6661 4.50922L25.0513 -14.6488C21.4384 -16.4187 17.5033 -17.4352 13.4853 -17.6366L12.4172 3.66993ZM15.6661 4.50922L6.2809 23.6672C4.69773 22.8917 3.28885 21.8022 2.13992 20.4651L18.3206 6.56189L34.5012 -7.34128C31.8793 -10.3927 28.6642 -12.8789 25.0513 -14.6488L15.6661 4.50922ZM18.3206 6.56189L2.13992 20.4651C0.990997 19.1279 0.126045 17.5711 -0.402343 15.8892L19.9502 9.49513L40.3028 3.10105C39.097 -0.737089 37.1231 -4.28988 34.5012 -7.34128L18.3206 6.56189ZM19.9502 9.49513L-0.402343 15.8892C-0.930735 14.2073 -1.11152 12.4355 -0.933705 10.6816L20.2908 12.8333L41.5154 14.9851C41.9212 10.9825 41.5086 6.9392 40.3028 3.10105L19.9502 9.49513ZM20.2908 12.8333V34.1667H21.9575V12.8333V-8.5H20.2908V12.8333ZM21.9575 12.8333L43.2149 14.6315C43.2518 14.1961 43.3333 13.2018 43.3333 12H22H0.66667C0.66667 11.6601 0.678187 11.3943 0.687066 11.2346C0.695538 11.0822 0.703714 10.9923 0.700091 11.0351L21.9575 12.8333ZM22 12H43.3333C43.3333 5.80285 41.4957 -0.255127 38.0527 -5.40786L20.3147 6.4443L2.57668 18.2965C1.33136 16.4327 0.66667 14.2415 0.66667 12H22ZM20.3147 6.4443L38.0527 -5.40786C34.6098 -10.5606 29.7162 -14.5767 23.9908 -16.9482L15.8268 2.76121L7.66293 22.4706C5.59203 21.6128 3.822 20.1602 2.57668 18.2965L20.3147 6.4443ZM15.8268 2.76121L23.9908 -16.9482C18.2653 -19.3198 11.9652 -19.9403 5.88717 -18.7313L10.0491 2.19215L14.211 23.1156C12.0126 23.5529 9.73382 23.3284 7.66293 22.4706L15.8268 2.76121ZM10.0491 2.19215L5.88717 -18.7313C-0.190895 -17.5223 -5.77396 -14.5381 -10.156 -10.156L4.92894 4.92894L20.0139 20.0139C18.4289 21.5989 16.4095 22.6783 14.211 23.1156L10.0491 2.19215ZM4.92894 4.92894L-10.156 -10.156C-14.5381 -5.77396 -17.5223 -0.190895 -18.7313 5.88717L2.19215 10.0491L23.1156 14.211C22.6783 16.4095 21.5989 18.4289 20.0139 20.0139L4.92894 4.92894ZM2.19215 10.0491L-18.7313 5.88717C-19.9403 11.9652 -19.3198 18.2653 -16.9482 23.9908L2.76121 15.8268L22.4706 7.66293C23.3284 9.73382 23.5529 12.0126 23.1156 14.211L2.19215 10.0491ZM2.76121 15.8268L-16.9482 23.9908C-14.5767 29.7162 -10.5606 34.6098 -5.40786 38.0527L6.4443 20.3147L18.2965 2.57668C20.1602 3.822 21.6128 5.59203 22.4706 7.66293L2.76121 15.8268ZM6.4443 20.3147L-5.40786 38.0527C-0.255127 41.4957 5.80285 43.3333 12 43.3333V22V0.66667C14.2415 0.66667 16.4327 1.33136 18.2965 2.57668L6.4443 20.3147ZM12 22V43.3333C13.2018 43.3333 14.1961 43.2518 14.6315 43.2149L12.8333 21.9575L11.0351 0.700091C10.9923 0.703714 11.0822 0.695538 11.2346 0.687066C11.3943 0.678187 11.6601 0.66667 12 0.66667V22ZM12.8333 21.9575H34.1667V20.2908H12.8333H-8.5V21.9575H12.8333ZM12.8333 20.2908L10.6812 -0.933665C12.4915 -1.11723 14.3202 -0.918906 16.0491 -0.351517L9.39691 19.9182L2.74473 40.1878C6.6872 41.4817 10.8573 41.9339 14.9855 41.5153L12.8333 20.2908ZM9.39691 19.9182L16.0491 -0.351517C17.778 0.215868 19.3685 1.1397 20.7181 2.36027L6.40791 18.1821L-7.90224 34.004C-4.82487 36.7873 -1.19774 38.894 2.74473 40.1878L9.39691 19.9182ZM6.40791 18.1821L20.7181 2.36027C22.0676 3.58083 23.1459 5.07097 23.8835 6.73437L4.38142 15.3819L-15.1207 24.0294C-13.4387 27.8226 -10.9796 31.2206 -7.90224 34.004L6.40791 18.1821ZM4.38142 15.3819L23.8835 6.73437C24.6211 8.39778 25.0014 10.1974 25 12.017L3.66667 12L-17.6667 11.983C-17.67 16.1323 -16.8026 20.2362 -15.1207 24.0294L4.38142 15.3819ZM11.1667 7H-10.1667V10.8217H11.1667H32.5V7H11.1667ZM11.1667 10.8217L-3.91827 -4.26327L-6.17411 -2.00744L8.91084 13.0775L23.9958 28.1624L26.2516 25.9066L11.1667 10.8217ZM8.91084 13.0775L-6.17411 28.1624L-4.99577 29.3408L10.0892 14.2558L25.1741 -0.829108L23.9958 -2.00744L8.91084 13.0775ZM10.0892 14.2558L25.1741 29.3408L27.9183 26.5966L12.8333 11.5117L-2.25161 -3.57327L-4.99577 -0.829108L10.0892 14.2558ZM12.8333 11.5117H34.1667V7H12.8333H-8.5V11.5117H12.8333ZM12.8333 7V-14.3333H11.1667V7V28.3333H12.8333V7Z" fill="#F87171" mask="url(#path-2-inside-1_7_6995)"/>
</g>
<defs>
<clipPath id="clip0_7_6995">
<rect width="20" height="20" fill="white" transform="translate(2 2)"/>
</clipPath>
</defs>
</svg>
