<svg width="24" height="25" viewBox="0 0 24 25" fill="none" xmlns="http://www.w3.org/2000/svg">
<g clip-path="url(#clip0_63_826)">
<path d="M12 1.5C15.2536 1.5 15.6452 1.51433 16.9023 1.57129C18.6154 1.64911 20.1792 2.1206 21.2793 3.2207C22.3081 4.24946 22.7882 5.68566 22.9092 7.27734L22.9287 7.59766C22.9857 8.85478 23 9.24635 23 12.5C23 14.9402 22.9918 15.7705 22.9639 16.5635L22.9287 17.4023C22.8499 19.1212 22.3831 20.6755 21.2793 21.7793C20.2506 22.808 18.8136 23.2881 17.2227 23.4092L16.9023 23.4287C15.6452 23.4857 15.2536 23.5 12 23.5C9.55984 23.5 8.7295 23.4918 7.93652 23.4639L7.09766 23.4287C5.38089 23.3499 3.82256 22.8812 2.7207 21.7793V21.7783C1.69347 20.7517 1.21198 19.3131 1.09082 17.7227L1.07129 17.4023C1.01433 16.1452 1 15.7536 1 12.5C1 10.0598 1.00817 9.2295 1.03613 8.43652L1.07129 7.59766C1.15011 5.87894 1.61782 4.32359 2.7207 3.2207C3.75034 2.19107 5.18566 1.71173 6.77734 1.59082L7.09766 1.57129C8.35478 1.51433 8.74635 1.5 12 1.5ZM12 1.66211C8.7921 1.66211 8.39364 1.67434 7.10547 1.7334C5.71272 1.79724 4.06199 2.10988 2.83594 3.33594C1.77819 4.39368 1.39259 5.81038 1.27051 7.07422L1.2334 7.60547C1.17434 8.89364 1.16211 9.2921 1.16211 12.5C1.16211 15.7079 1.17434 16.1064 1.2334 17.3945C1.29326 18.6955 1.57453 20.2347 2.61719 21.4297L2.83594 21.6641C4.04004 22.8692 5.72827 23.2037 7.10547 23.2666C8.39364 23.3257 8.7921 23.3379 12 23.3379C15.2079 23.3379 15.6064 23.3257 16.8945 23.2666C18.2914 23.2028 19.936 22.8921 21.1641 21.6641C22.2245 20.6036 22.608 19.1926 22.7295 17.9268L22.7666 17.3945C22.8257 16.1064 22.8379 15.7079 22.8379 12.5C22.8379 9.2921 22.8257 8.89364 22.7666 7.60547C22.7028 6.20972 22.3922 4.56403 21.1641 3.33594C19.9456 2.11748 18.2877 1.7973 16.8945 1.7334C15.6064 1.67434 15.2079 1.66211 12 1.66211Z" fill="url(#paint0_linear_63_826)" stroke="url(#paint1_linear_63_826)" stroke-width="2"/>
<path d="M12 6.33801C8.59701 6.33801 5.83801 9.09701 5.83801 12.5C5.83801 15.903 8.59701 18.662 12 18.662C15.403 18.662 18.162 15.903 18.162 12.5C18.162 9.09701 15.403 6.33801 12 6.33801ZM12 16.5C9.79101 16.5 8.00001 14.709 8.00001 12.5C8.00001 10.291 9.79101 8.50001 12 8.50001C14.209 8.50001 16 10.291 16 12.5C16 14.709 14.209 16.5 12 16.5Z" fill="url(#paint2_linear_63_826)"/>
<path d="M18.4059 7.53399C19.2012 7.53399 19.8459 6.88928 19.8459 6.09399C19.8459 5.2987 19.2012 4.65399 18.4059 4.65399C17.6107 4.65399 16.9659 5.2987 16.9659 6.09399C16.9659 6.88928 17.6107 7.53399 18.4059 7.53399Z" fill="url(#paint3_linear_63_826)"/>
</g>
<defs>
<linearGradient id="paint0_linear_63_826" x1="12" y1="0.5" x2="12" y2="24.5" gradientUnits="userSpaceOnUse">
<stop stop-color="#E1306C"/>
<stop offset="0.5" stop-color="#C13584"/>
<stop offset="0.75" stop-color="#DB4B62"/>
<stop offset="1" stop-color="#FCAF45"/>
</linearGradient>
<linearGradient id="paint1_linear_63_826" x1="12" y1="0.5" x2="12" y2="24.5" gradientUnits="userSpaceOnUse">
<stop stop-color="#E1306C"/>
<stop offset="0.5" stop-color="#C13584"/>
<stop offset="0.75" stop-color="#DB4B62"/>
<stop offset="1" stop-color="#FCAF45"/>
</linearGradient>
<linearGradient id="paint2_linear_63_826" x1="12" y1="6.33801" x2="12" y2="18.662" gradientUnits="userSpaceOnUse">
<stop stop-color="#E1306C"/>
<stop offset="0.5" stop-color="#C13584"/>
<stop offset="0.75" stop-color="#DB4B62"/>
<stop offset="1" stop-color="#FCAF45"/>
</linearGradient>
<linearGradient id="paint3_linear_63_826" x1="18.4059" y1="4.65399" x2="18.4059" y2="7.53399" gradientUnits="userSpaceOnUse">
<stop stop-color="#E1306C"/>
<stop offset="0.5" stop-color="#C13584"/>
<stop offset="0.75" stop-color="#DB4B62"/>
<stop offset="1" stop-color="#FCAF45"/>
</linearGradient>
<clipPath id="clip0_63_826">
<rect width="24" height="24" fill="white" transform="translate(0 0.5)"/>
</clipPath>
</defs>
</svg>
