<svg width="24" height="25" viewBox="0 0 24 25" fill="none" xmlns="http://www.w3.org/2000/svg">
<path d="M19.7455 20.2462H16.4855V15.1409C16.4855 13.9234 16.4639 12.3568 14.79 12.3568C13.0922 12.3568 12.8321 13.6827 12.8321 15.0531V20.2462H9.5732V9.74721H12.7031V11.1816H12.7464C13.385 10.0909 14.571 9.43931 15.834 9.48593C19.1384 9.48593 19.7466 11.6597 19.7466 14.4861L19.7455 20.2462ZM5.89479 8.31179C4.8497 8.31179 4.00301 7.46506 4.00301 6.41993C4.00301 5.37481 4.8497 4.52808 5.89479 4.52808C6.93988 4.52808 7.78658 5.37481 7.78658 6.41993C7.78658 7.46506 6.93988 8.31179 5.89479 8.31179ZM7.52422 20.2462H4.26103V9.74721H7.52422V20.2462ZM21.3706 1.50111H2.62292C1.7372 1.49135 1.01084 2.20148 1 3.08723V21.9125C1.01084 22.7994 1.7372 23.5095 2.62292 23.4998H21.3706C22.2585 23.5106 22.9881 22.8005 23 21.9125V3.08615C22.987 2.19822 22.2574 1.4881 21.3706 1.50003" fill="#1877F2"/>
</svg>
