<svg width="48" height="48" viewBox="0 0 48 48" fill="none" xmlns="http://www.w3.org/2000/svg">
<g clip-path="url(#clip0_7_6801)">
<path d="M24 47.25C36.8406 47.25 47.25 36.8406 47.25 24C47.25 11.1594 36.8406 0.75 24 0.75C11.1594 0.75 0.75 11.1594 0.75 24C0.75 36.8406 11.1594 47.25 24 47.25Z" fill="#E5E7EB"/>
<path d="M42.6577 37.8561C40.4894 34.953 37.6737 32.5958 34.4346 30.9716C31.1955 29.3474 27.6223 28.5011 23.9988 28.5C20.3753 28.4989 16.8015 29.3429 13.5613 30.965C10.3212 32.5872 7.50413 34.9427 5.33392 37.8444C7.4931 40.7608 10.3056 43.1307 13.5459 44.7641C16.7862 46.3975 20.3642 47.2489 23.9929 47.25C27.6216 47.2512 31.2001 46.402 34.4414 44.7707C37.6828 43.1393 40.4967 40.7712 42.6577 37.8561Z" fill="#6B7280"/>
<path d="M24 25.5C28.9706 25.5 33 21.4706 33 16.5C33 11.5294 28.9706 7.5 24 7.5C19.0294 7.5 15 11.5294 15 16.5C15 21.4706 19.0294 25.5 24 25.5Z" fill="#6B7280"/>
</g>
<rect x="1" y="1" width="46" height="46" rx="23" stroke="#305DFF" stroke-width="2"/>
<defs>
<clipPath id="clip0_7_6801">
<rect width="48" height="48" rx="24" fill="white"/>
</clipPath>
</defs>
</svg>
