<svg width="28" height="29" viewBox="0 0 28 29" fill="none" xmlns="http://www.w3.org/2000/svg">
<path d="M11.6667 18L17.7217 14.5L11.6667 11V18ZM25.1534 8.86498C25.305 9.41331 25.41 10.1483 25.48 11.0816C25.5617 12.015 25.5967 12.82 25.5967 13.52L25.6667 14.5C25.6667 17.055 25.48 18.9333 25.1534 20.135C24.8617 21.185 24.185 21.8616 23.135 22.1533C22.5867 22.305 21.5834 22.41 20.0434 22.48C18.5267 22.5616 17.1384 22.5966 15.855 22.5966L14 22.6666C9.11171 22.6666 6.06671 22.48 4.86504 22.1533C3.81504 21.8616 3.13837 21.185 2.84671 20.135C2.69504 19.5866 2.59004 18.8516 2.52004 17.9183C2.43837 16.985 2.40337 16.18 2.40337 15.48L2.33337 14.5C2.33337 11.945 2.52004 10.0666 2.84671 8.86498C3.13837 7.81498 3.81504 7.13831 4.86504 6.84665C5.41337 6.69498 6.41671 6.58998 7.95671 6.51998C9.47337 6.43831 10.8617 6.40331 12.145 6.40331L14 6.33331C18.8884 6.33331 21.9334 6.51998 23.135 6.84665C24.185 7.13831 24.8617 7.81498 25.1534 8.86498Z" fill="#FF4848"/>
</svg>
